<?xml version="1.0" encoding="utf-8" standalone="no"?>
<!DOCTYPE svg PUBLIC "-//W3C//DTD SVG 1.1//EN"
  "http://www.w3.org/Graphics/SVG/1.1/DTD/svg11.dtd">
<svg xmlns:xlink="http://www.w3.org/1999/xlink" width="792pt" height="360pt" viewBox="0 0 792 360" xmlns="http://www.w3.org/2000/svg" version="1.1">
 <metadata>
  <rdf:RDF xmlns:dc="http://purl.org/dc/elements/1.1/" xmlns:cc="http://creativecommons.org/ns#" xmlns:rdf="http://www.w3.org/1999/02/22-rdf-syntax-ns#">
   <cc:Work>
    <dc:type rdf:resource="http://purl.org/dc/dcmitype/StillImage"/>
    <dc:date>2026-09-20T17:08:05.728811</dc:date>
    <dc:format>image/svg+xml</dc:format>
    <dc:creator>
     <cc:Agent>
      <dc:title>Matplotlib v3.11.2, https://matplotlib.org/</dc:title>
     </cc:Agent>
    </dc:creator>
   </cc:Work>
  </rdf:RDF>
 </metadata>
 <defs>
  <style type="text/css">*{stroke-linejoin: round; stroke-linecap: butt}</style>
 </defs>
 <g id="figure_1">
  <g id="patch_1">
   <path d="M 0 360 
L 792 360 
L 792 0 
L 0 0 
z
" style="fill: #ffffff"/>
  </g>
  <g id="axes_1">
   <g id="patch_2">
    <path d="M 30.363521 325.998979 
L 788.99976 325.998979 
L 788.99976 36.119783 
L 30.363521 36.119783 
z
" style="fill: #ffffff"/>
   </g>
   <g id="patch_3">
    <path d="M 64.846987 325.998979 
L 84.551824 325.998979 
L 84.551824 325.950301 
L 64.846987 325.950301 
z
" clip-path="url(#p5dd81313cd)" style="fill: #1f77b4; opacity: 0.65"/>
   </g>
   <g id="patch_4">
    <path d="M 84.551824 325.998979 
L 104.256661 325.998979 
L 104.256661 325.828607 
L 84.551824 325.828607 
z
" clip-path="url(#p5dd81313cd)" style="fill: #1f77b4; opacity: 0.65"/>
   </g>
   <g id="patch_5">
    <path d="M 104.256661 325.998979 
L 123.961499 325.998979 
L 123.961499 325.414847 
L 104.256661 325.414847 
z
" clip-path="url(#p5dd81313cd)" style="fill: #1f77b4; opacity: 0.65"/>
   </g>
   <g id="patch_6">
    <path d="M 123.961499 325.998979 
L 143.666336 325.998979 
L 143.666336 324.757698 
L 123.961499 324.757698 
z
" clip-path="url(#p5dd81313cd)" style="fill: #1f77b4; opacity: 0.65"/>
   </g>
   <g id="patch_7">
    <path d="M 143.666336 325.998979 
L 163.371173 325.998979 
L 163.371173 323.346046 
L 143.666336 323.346046 
z
" clip-path="url(#p5dd81313cd)" style="fill: #1f77b4; opacity: 0.65"/>
   </g>
   <g id="patch_8">
    <path d="M 163.371173 325.998979 
L 183.076011 325.998979 
L 183.076011 325.998979 
L 163.371173 325.998979 
z
" clip-path="url(#p5dd81313cd)" style="fill: #1f77b4; opacity: 0.65"/>
   </g>
   <g id="patch_9">
    <path d="M 183.076011 325.998979 
L 202.780848 325.998979 
L 202.780848 318.502617 
L 183.076011 318.502617 
z
" clip-path="url(#p5dd81313cd)" style="fill: #1f77b4; opacity: 0.65"/>
   </g>
   <g id="patch_10">
    <path d="M 202.780848 325.998979 
L 222.485686 325.998979 
L 222.485686 311.030594 
L 202.780848 311.030594 
z
" clip-path="url(#p5dd81313cd)" style="fill: #1f77b4; opacity: 0.65"/>
   </g>
   <g id="patch_11">
    <path d="M 222.485686 325.998979 
L 242.190523 325.998979 
L 242.190523 298.836837 
L 222.485686 298.836837 
z
" clip-path="url(#p5dd81313cd)" style="fill: #1f77b4; opacity: 0.65"/>
   </g>
   <g id="patch_12">
    <path d="M 242.190523 325.998979 
L 261.89536 325.998979 
L 261.89536 274.498 
L 242.190523 274.498 
z
" clip-path="url(#p5dd81313cd)" style="fill: #1f77b4; opacity: 0.65"/>
   </g>
   <g id="patch_13">
    <path d="M 261.89536 325.998979 
L 281.600198 325.998979 
L 281.600198 247.189825 
L 261.89536 247.189825 
z
" clip-path="url(#p5dd81313cd)" style="fill: #1f77b4; opacity: 0.65"/>
   </g>
   <g id="patch_14">
    <path d="M 281.600198 325.998979 
L 301.305035 325.998979 
L 301.305035 325.998979 
L 281.600198 325.998979 
z
" clip-path="url(#p5dd81313cd)" style="fill: #1f77b4; opacity: 0.65"/>
   </g>
   <g id="patch_15">
    <path d="M 301.305035 325.998979 
L 321.009872 325.998979 
L 321.009872 203.939713 
L 301.305035 203.939713 
z
" clip-path="url(#p5dd81313cd)" style="fill: #1f77b4; opacity: 0.65"/>
   </g>
   <g id="patch_16">
    <path d="M 321.009872 325.998979 
L 340.71471 325.998979 
L 340.71471 158.1827 
L 321.009872 158.1827 
z
" clip-path="url(#p5dd81313cd)" style="fill: #1f77b4; opacity: 0.65"/>
   </g>
   <g id="patch_17">
    <path d="M 340.71471 325.998979 
L 360.419547 325.998979 
L 360.419547 109.115605 
L 340.71471 109.115605 
z
" clip-path="url(#p5dd81313cd)" style="fill: #1f77b4; opacity: 0.65"/>
   </g>
   <g id="patch_18">
    <path d="M 360.419547 325.998979 
L 380.124385 325.998979 
L 380.124385 78.789414 
L 360.419547 78.789414 
z
" clip-path="url(#p5dd81313cd)" style="fill: #1f77b4; opacity: 0.65"/>
   </g>
   <g id="patch_19">
    <path d="M 380.124385 325.998979 
L 399.829222 325.998979 
L 399.829222 53.915123 
L 380.124385 53.915123 
z
" clip-path="url(#p5dd81313cd)" style="fill: #1f77b4; opacity: 0.65"/>
   </g>
   <g id="patch_20">
    <path d="M 399.829222 325.998979 
L 419.534059 325.998979 
L 419.534059 325.998979 
L 399.829222 325.998979 
z
" clip-path="url(#p5dd81313cd)" style="fill: #1f77b4; opacity: 0.65"/>
   </g>
   <g id="patch_21">
    <path d="M 419.534059 325.998979 
L 439.238897 325.998979 
L 439.238897 49.923554 
L 419.534059 49.923554 
z
" clip-path="url(#p5dd81313cd)" style="fill: #1f77b4; opacity: 0.65"/>
   </g>
   <g id="patch_22">
    <path d="M 439.238897 325.998979 
L 458.943734 325.998979 
L 458.943734 70.830614 
L 439.238897 70.830614 
z
" clip-path="url(#p5dd81313cd)" style="fill: #1f77b4; opacity: 0.65"/>
   </g>
   <g id="patch_23">
    <path d="M 458.943734 325.998979 
L 478.648571 325.998979 
L 478.648571 108.142051 
L 458.943734 108.142051 
z
" clip-path="url(#p5dd81313cd)" style="fill: #1f77b4; opacity: 0.65"/>
   </g>
   <g id="patch_24">
    <path d="M 478.648571 325.998979 
L 498.353409 325.998979 
L 498.353409 159.862079 
L 478.648571 159.862079 
z
" clip-path="url(#p5dd81313cd)" style="fill: #1f77b4; opacity: 0.65"/>
   </g>
   <g id="patch_25">
    <path d="M 498.353409 325.998979 
L 518.058246 325.998979 
L 518.058246 204.596861 
L 498.353409 204.596861 
z
" clip-path="url(#p5dd81313cd)" style="fill: #1f77b4; opacity: 0.65"/>
   </g>
   <g id="patch_26">
    <path d="M 518.058246 325.998979 
L 537.763084 325.998979 
L 537.763084 325.998979 
L 518.058246 325.998979 
z
" clip-path="url(#p5dd81313cd)" style="fill: #1f77b4; opacity: 0.65"/>
   </g>
   <g id="patch_27">
    <path d="M 537.763084 325.998979 
L 557.467921 325.998979 
L 557.467921 244.780281 
L 537.763084 244.780281 
z
" clip-path="url(#p5dd81313cd)" style="fill: #1f77b4; opacity: 0.65"/>
   </g>
   <g id="patch_28">
    <path d="M 557.467921 325.998979 
L 577.172758 325.998979 
L 577.172758 274.814405 
L 557.467921 274.814405 
z
" clip-path="url(#p5dd81313cd)" style="fill: #1f77b4; opacity: 0.65"/>
   </g>
   <g id="patch_29">
    <path d="M 577.172758 325.998979 
L 596.877596 325.998979 
L 596.877596 297.9363 
L 577.172758 297.9363 
z
" clip-path="url(#p5dd81313cd)" style="fill: #1f77b4; opacity: 0.65"/>
   </g>
   <g id="patch_30">
    <path d="M 596.877596 325.998979 
L 616.582433 325.998979 
L 616.582433 311.54171 
L 596.877596 311.54171 
z
" clip-path="url(#p5dd81313cd)" style="fill: #1f77b4; opacity: 0.65"/>
   </g>
   <g id="patch_31">
    <path d="M 616.582433 325.998979 
L 636.28727 325.998979 
L 636.28727 318.940716 
L 616.582433 318.940716 
z
" clip-path="url(#p5dd81313cd)" style="fill: #1f77b4; opacity: 0.65"/>
   </g>
   <g id="patch_32">
    <path d="M 636.28727 325.998979 
L 655.992108 325.998979 
L 655.992108 325.998979 
L 636.28727 325.998979 
z
" clip-path="url(#p5dd81313cd)" style="fill: #1f77b4; opacity: 0.65"/>
   </g>
   <g id="patch_33">
    <path d="M 655.992108 325.998979 
L 675.696945 325.998979 
L 675.696945 322.980963 
L 655.992108 322.980963 
z
" clip-path="url(#p5dd81313cd)" style="fill: #1f77b4; opacity: 0.65"/>
   </g>
   <g id="patch_34">
    <path d="M 675.696945 325.998979 
L 695.401782 325.998979 
L 695.401782 324.976748 
L 675.696945 324.976748 
z
" clip-path="url(#p5dd81313cd)" style="fill: #1f77b4; opacity: 0.65"/>
   </g>
   <g id="patch_35">
    <path d="M 695.401782 325.998979 
L 715.10662 325.998979 
L 715.10662 325.658235 
L 695.401782 325.658235 
z
" clip-path="url(#p5dd81313cd)" style="fill: #1f77b4; opacity: 0.65"/>
   </g>
   <g id="patch_36">
    <path d="M 715.10662 325.998979 
L 734.811457 325.998979 
L 734.811457 325.852946 
L 715.10662 325.852946 
z
" clip-path="url(#p5dd81313cd)" style="fill: #1f77b4; opacity: 0.65"/>
   </g>
   <g id="patch_37">
    <path d="M 734.811457 325.998979 
L 754.516295 325.998979 
L 754.516295 325.950301 
L 734.811457 325.950301 
z
" clip-path="url(#p5dd81313cd)" style="fill: #1f77b4; opacity: 0.65"/>
   </g>
   <g id="matplotlib.axis_1">
    <g id="xtick_1">
     <g id="line2d_1">
      <defs>
       <path id="m3d5e9326d3" d="M 0 0 
L 0 3.5 
" style="stroke: #000000; stroke-width: 0.8"/>
      </defs>
      <g>
       <use xlink:href="#m3d5e9326d3" x="60.090647" y="325.998979" style="stroke: #000000; stroke-width: 0.8"/>
      </g>
     </g>
     <g id="text_1">
      <!-- 0.2 -->
      <g transform="translate(52.139084 340.596635) scale(0.1 -0.1)">
       <defs>
        <path id="DejaVuSans-13" d="M 2034 4250 
Q 1547 4250 1301 3770 
Q 1056 3291 1056 2328 
Q 1056 1369 1301 889 
Q 1547 409 2034 409 
Q 2525 409 2770 889 
Q 3016 1369 3016 2328 
Q 3016 3291 2770 3770 
Q 2525 4250 2034 4250 
z
M 2034 4750 
Q 2819 4750 3233 4129 
Q 3647 3509 3647 2328 
Q 3647 1150 3233 529 
Q 2819 -91 2034 -91 
Q 1250 -91 836 529 
Q 422 1150 422 2328 
Q 422 3509 836 4129 
Q 1250 4750 2034 4750 
z
" transform="scale(0.015625)"/>
        <path id="DejaVuSans-11" d="M 684 794 
L 1344 794 
L 1344 0 
L 684 0 
L 684 794 
z
" transform="scale(0.015625)"/>
        <path id="DejaVuSans-15" d="M 1228 531 
L 3431 531 
L 3431 0 
L 469 0 
L 469 531 
Q 828 903 1448 1529 
Q 2069 2156 2228 2338 
Q 2531 2678 2651 2914 
Q 2772 3150 2772 3378 
Q 2772 3750 2511 3984 
Q 2250 4219 1831 4219 
Q 1534 4219 1204 4116 
Q 875 4013 500 3803 
L 500 4441 
Q 881 4594 1212 4672 
Q 1544 4750 1819 4750 
Q 2544 4750 2975 4387 
Q 3406 4025 3406 3419 
Q 3406 3131 3298 2873 
Q 3191 2616 2906 2266 
Q 2828 2175 2409 1742 
Q 1991 1309 1228 531 
z
" transform="scale(0.015625)"/>
       </defs>
       <use xlink:href="#DejaVuSans-13"/>
       <use xlink:href="#DejaVuSans-11" transform="translate(63.625 0)"/>
       <use xlink:href="#DejaVuSans-15" transform="translate(95.40625 0)"/>
      </g>
     </g>
    </g>
    <g id="xtick_2">
     <g id="line2d_2">
      <g>
       <use xlink:href="#m3d5e9326d3" x="176.620978" y="325.998979" style="stroke: #000000; stroke-width: 0.8"/>
      </g>
     </g>
     <g id="text_2">
      <!-- 0.3 -->
      <g transform="translate(168.669415 340.596635) scale(0.1 -0.1)">
       <defs>
        <path id="DejaVuSans-16" d="M 2597 2516 
Q 3050 2419 3304 2112 
Q 3559 1806 3559 1356 
Q 3559 666 3084 287 
Q 2609 -91 1734 -91 
Q 1441 -91 1130 -33 
Q 819 25 488 141 
L 488 750 
Q 750 597 1062 519 
Q 1375 441 1716 441 
Q 2309 441 2620 675 
Q 2931 909 2931 1356 
Q 2931 1769 2642 2001 
Q 2353 2234 1838 2234 
L 1294 2234 
L 1294 2753 
L 1863 2753 
Q 2328 2753 2575 2939 
Q 2822 3125 2822 3475 
Q 2822 3834 2567 4026 
Q 2313 4219 1838 4219 
Q 1578 4219 1281 4162 
Q 984 4106 628 3988 
L 628 4550 
Q 988 4650 1302 4700 
Q 1616 4750 1894 4750 
Q 2613 4750 3031 4423 
Q 3450 4097 3450 3541 
Q 3450 3153 3228 2886 
Q 3006 2619 2597 2516 
z
" transform="scale(0.015625)"/>
       </defs>
       <use xlink:href="#DejaVuSans-13"/>
       <use xlink:href="#DejaVuSans-11" transform="translate(63.625 0)"/>
       <use xlink:href="#DejaVuSans-16" transform="translate(95.40625 0)"/>
      </g>
     </g>
    </g>
    <g id="xtick_3">
     <g id="line2d_3">
      <g>
       <use xlink:href="#m3d5e9326d3" x="293.151309" y="325.998979" style="stroke: #000000; stroke-width: 0.8"/>
      </g>
     </g>
     <g id="text_3">
      <!-- 0.4 -->
      <g transform="translate(285.199747 340.596635) scale(0.1 -0.1)">
       <defs>
        <path id="DejaVuSans-17" d="M 2419 4116 
L 825 1625 
L 2419 1625 
L 2419 4116 
z
M 2253 4666 
L 3047 4666 
L 3047 1625 
L 3713 1625 
L 3713 1100 
L 3047 1100 
L 3047 0 
L 2419 0 
L 2419 1100 
L 313 1100 
L 313 1709 
L 2253 4666 
z
" transform="scale(0.015625)"/>
       </defs>
       <use xlink:href="#DejaVuSans-13"/>
       <use xlink:href="#DejaVuSans-11" transform="translate(63.625 0)"/>
       <use xlink:href="#DejaVuSans-17" transform="translate(95.40625 0)"/>
      </g>
     </g>
    </g>
    <g id="xtick_4">
     <g id="line2d_4">
      <g>
       <use xlink:href="#m3d5e9326d3" x="409.681641" y="325.998979" style="stroke: #000000; stroke-width: 0.8"/>
      </g>
     </g>
     <g id="text_4">
      <!-- 0.5 -->
      <g transform="translate(401.730078 340.596635) scale(0.1 -0.1)">
       <defs>
        <path id="DejaVuSans-18" d="M 691 4666 
L 3169 4666 
L 3169 4134 
L 1269 4134 
L 1269 2991 
Q 1406 3038 1543 3061 
Q 1681 3084 1819 3084 
Q 2600 3084 3056 2656 
Q 3513 2228 3513 1497 
Q 3513 744 3044 326 
Q 2575 -91 1722 -91 
Q 1428 -91 1123 -41 
Q 819 9 494 109 
L 494 744 
Q 775 591 1075 516 
Q 1375 441 1709 441 
Q 2250 441 2565 725 
Q 2881 1009 2881 1497 
Q 2881 1984 2565 2268 
Q 2250 2553 1709 2553 
Q 1456 2553 1204 2497 
Q 953 2441 691 2322 
L 691 4666 
z
" transform="scale(0.015625)"/>
       </defs>
       <use xlink:href="#DejaVuSans-13"/>
       <use xlink:href="#DejaVuSans-11" transform="translate(63.625 0)"/>
       <use xlink:href="#DejaVuSans-18" transform="translate(95.40625 0)"/>
      </g>
     </g>
    </g>
    <g id="xtick_5">
     <g id="line2d_5">
      <g>
       <use xlink:href="#m3d5e9326d3" x="526.211972" y="325.998979" style="stroke: #000000; stroke-width: 0.8"/>
      </g>
     </g>
     <g id="text_5">
      <!-- 0.6 -->
      <g transform="translate(518.260409 340.596635) scale(0.1 -0.1)">
       <defs>
        <path id="DejaVuSans-19" d="M 2113 2584 
Q 1688 2584 1439 2293 
Q 1191 2003 1191 1497 
Q 1191 994 1439 701 
Q 1688 409 2113 409 
Q 2538 409 2786 701 
Q 3034 994 3034 1497 
Q 3034 2003 2786 2293 
Q 2538 2584 2113 2584 
z
M 3366 4563 
L 3366 3988 
Q 3128 4100 2886 4159 
Q 2644 4219 2406 4219 
Q 1781 4219 1451 3797 
Q 1122 3375 1075 2522 
Q 1259 2794 1537 2939 
Q 1816 3084 2150 3084 
Q 2853 3084 3261 2657 
Q 3669 2231 3669 1497 
Q 3669 778 3244 343 
Q 2819 -91 2113 -91 
Q 1303 -91 875 529 
Q 447 1150 447 2328 
Q 447 3434 972 4092 
Q 1497 4750 2381 4750 
Q 2619 4750 2861 4703 
Q 3103 4656 3366 4563 
z
" transform="scale(0.015625)"/>
       </defs>
       <use xlink:href="#DejaVuSans-13"/>
       <use xlink:href="#DejaVuSans-11" transform="translate(63.625 0)"/>
       <use xlink:href="#DejaVuSans-19" transform="translate(95.40625 0)"/>
      </g>
     </g>
    </g>
    <g id="xtick_6">
     <g id="line2d_6">
      <g>
       <use xlink:href="#m3d5e9326d3" x="642.742303" y="325.998979" style="stroke: #000000; stroke-width: 0.8"/>
      </g>
     </g>
     <g id="text_6">
      <!-- 0.7 -->
      <g transform="translate(634.790741 340.596635) scale(0.1 -0.1)">
       <defs>
        <path id="DejaVuSans-1a" d="M 525 4666 
L 3525 4666 
L 3525 4397 
L 1831 0 
L 1172 0 
L 2766 4134 
L 525 4134 
L 525 4666 
z
" transform="scale(0.015625)"/>
       </defs>
       <use xlink:href="#DejaVuSans-13"/>
       <use xlink:href="#DejaVuSans-11" transform="translate(63.625 0)"/>
       <use xlink:href="#DejaVuSans-1a" transform="translate(95.40625 0)"/>
      </g>
     </g>
    </g>
    <g id="xtick_7">
     <g id="line2d_7">
      <g>
       <use xlink:href="#m3d5e9326d3" x="759.272635" y="325.998979" style="stroke: #000000; stroke-width: 0.8"/>
      </g>
     </g>
     <g id="text_7">
      <!-- 0.8 -->
      <g transform="translate(751.321072 340.596635) scale(0.1 -0.1)">
       <defs>
        <path id="DejaVuSans-1b" d="M 2034 2216 
Q 1584 2216 1326 1975 
Q 1069 1734 1069 1313 
Q 1069 891 1326 650 
Q 1584 409 2034 409 
Q 2484 409 2743 651 
Q 3003 894 3003 1313 
Q 3003 1734 2745 1975 
Q 2488 2216 2034 2216 
z
M 1403 2484 
Q 997 2584 770 2862 
Q 544 3141 544 3541 
Q 544 4100 942 4425 
Q 1341 4750 2034 4750 
Q 2731 4750 3128 4425 
Q 3525 4100 3525 3541 
Q 3525 3141 3298 2862 
Q 3072 2584 2669 2484 
Q 3125 2378 3379 2068 
Q 3634 1759 3634 1313 
Q 3634 634 3220 271 
Q 2806 -91 2034 -91 
Q 1263 -91 848 271 
Q 434 634 434 1313 
Q 434 1759 690 2068 
Q 947 2378 1403 2484 
z
M 1172 3481 
Q 1172 3119 1398 2916 
Q 1625 2713 2034 2713 
Q 2441 2713 2670 2916 
Q 2900 3119 2900 3481 
Q 2900 3844 2670 4047 
Q 2441 4250 2034 4250 
Q 1625 4250 1398 4047 
Q 1172 3844 1172 3481 
z
" transform="scale(0.015625)"/>
       </defs>
       <use xlink:href="#DejaVuSans-13"/>
       <use xlink:href="#DejaVuSans-11" transform="translate(63.625 0)"/>
       <use xlink:href="#DejaVuSans-1b" transform="translate(95.40625 0)"/>
      </g>
     </g>
    </g>
    <g id="text_8">
     <!-- Sample proportion -->
     <g transform="translate(363.298828 354.597416) scale(0.1 -0.1)">
      <defs>
       <path id="DejaVuSans-36" d="M 3425 4513 
L 3425 3897 
Q 3066 4069 2747 4153 
Q 2428 4238 2131 4238 
Q 1616 4238 1336 4038 
Q 1056 3838 1056 3469 
Q 1056 3159 1242 3001 
Q 1428 2844 1947 2747 
L 2328 2669 
Q 3034 2534 3370 2195 
Q 3706 1856 3706 1288 
Q 3706 609 3251 259 
Q 2797 -91 1919 -91 
Q 1588 -91 1214 -16 
Q 841 59 441 206 
L 441 856 
Q 825 641 1194 531 
Q 1563 422 1919 422 
Q 2459 422 2753 634 
Q 3047 847 3047 1241 
Q 3047 1584 2836 1778 
Q 2625 1972 2144 2069 
L 1759 2144 
Q 1053 2284 737 2584 
Q 422 2884 422 3419 
Q 422 4038 858 4394 
Q 1294 4750 2059 4750 
Q 2388 4750 2728 4690 
Q 3069 4631 3425 4513 
z
" transform="scale(0.015625)"/>
       <path id="DejaVuSans-44" d="M 2194 1759 
Q 1497 1759 1228 1600 
Q 959 1441 959 1056 
Q 959 750 1161 570 
Q 1363 391 1709 391 
Q 2188 391 2477 730 
Q 2766 1069 2766 1631 
L 2766 1759 
L 2194 1759 
z
M 3341 1997 
L 3341 0 
L 2766 0 
L 2766 531 
Q 2569 213 2275 61 
Q 1981 -91 1556 -91 
Q 1019 -91 701 211 
Q 384 513 384 1019 
Q 384 1609 779 1909 
Q 1175 2209 1959 2209 
L 2766 2209 
L 2766 2266 
Q 2766 2663 2505 2880 
Q 2244 3097 1772 3097 
Q 1472 3097 1187 3025 
Q 903 2953 641 2809 
L 641 3341 
Q 956 3463 1253 3523 
Q 1550 3584 1831 3584 
Q 2591 3584 2966 3190 
Q 3341 2797 3341 1997 
z
" transform="scale(0.015625)"/>
       <path id="DejaVuSans-50" d="M 3328 2828 
Q 3544 3216 3844 3400 
Q 4144 3584 4550 3584 
Q 5097 3584 5394 3201 
Q 5691 2819 5691 2113 
L 5691 0 
L 5113 0 
L 5113 2094 
Q 5113 2597 4934 2840 
Q 4756 3084 4391 3084 
Q 3944 3084 3684 2787 
Q 3425 2491 3425 1978 
L 3425 0 
L 2847 0 
L 2847 2094 
Q 2847 2600 2669 2842 
Q 2491 3084 2119 3084 
Q 1678 3084 1418 2786 
Q 1159 2488 1159 1978 
L 1159 0 
L 581 0 
L 581 3500 
L 1159 3500 
L 1159 2956 
Q 1356 3278 1631 3431 
Q 1906 3584 2284 3584 
Q 2666 3584 2933 3390 
Q 3200 3197 3328 2828 
z
" transform="scale(0.015625)"/>
       <path id="DejaVuSans-53" d="M 1159 525 
L 1159 -1331 
L 581 -1331 
L 581 3500 
L 1159 3500 
L 1159 2969 
Q 1341 3281 1617 3432 
Q 1894 3584 2278 3584 
Q 2916 3584 3314 3078 
Q 3713 2572 3713 1747 
Q 3713 922 3314 415 
Q 2916 -91 2278 -91 
Q 1894 -91 1617 61 
Q 1341 213 1159 525 
z
M 3116 1747 
Q 3116 2381 2855 2742 
Q 2594 3103 2138 3103 
Q 1681 3103 1420 2742 
Q 1159 2381 1159 1747 
Q 1159 1113 1420 752 
Q 1681 391 2138 391 
Q 2594 391 2855 752 
Q 3116 1113 3116 1747 
z
" transform="scale(0.015625)"/>
       <path id="DejaVuSans-4f" d="M 603 4863 
L 1178 4863 
L 1178 0 
L 603 0 
L 603 4863 
z
" transform="scale(0.015625)"/>
       <path id="DejaVuSans-48" d="M 3597 1894 
L 3597 1613 
L 953 1613 
Q 991 1019 1311 708 
Q 1631 397 2203 397 
Q 2534 397 2845 478 
Q 3156 559 3463 722 
L 3463 178 
Q 3153 47 2828 -22 
Q 2503 -91 2169 -91 
Q 1331 -91 842 396 
Q 353 884 353 1716 
Q 353 2575 817 3079 
Q 1281 3584 2069 3584 
Q 2775 3584 3186 3129 
Q 3597 2675 3597 1894 
z
M 3022 2063 
Q 3016 2534 2758 2815 
Q 2500 3097 2075 3097 
Q 1594 3097 1305 2825 
Q 1016 2553 972 2059 
L 3022 2063 
z
" transform="scale(0.015625)"/>
       <path id="DejaVuSans-3" transform="scale(0.015625)"/>
       <path id="DejaVuSans-55" d="M 2631 2963 
Q 2534 3019 2420 3045 
Q 2306 3072 2169 3072 
Q 1681 3072 1420 2755 
Q 1159 2438 1159 1844 
L 1159 0 
L 581 0 
L 581 3500 
L 1159 3500 
L 1159 2956 
Q 1341 3275 1631 3429 
Q 1922 3584 2338 3584 
Q 2397 3584 2469 3576 
Q 2541 3569 2628 3553 
L 2631 2963 
z
" transform="scale(0.015625)"/>
       <path id="DejaVuSans-52" d="M 1959 3097 
Q 1497 3097 1228 2736 
Q 959 2375 959 1747 
Q 959 1119 1226 758 
Q 1494 397 1959 397 
Q 2419 397 2687 759 
Q 2956 1122 2956 1747 
Q 2956 2369 2687 2733 
Q 2419 3097 1959 3097 
z
M 1959 3584 
Q 2709 3584 3137 3096 
Q 3566 2609 3566 1747 
Q 3566 888 3137 398 
Q 2709 -91 1959 -91 
Q 1206 -91 779 398 
Q 353 888 353 1747 
Q 353 2609 779 3096 
Q 1206 3584 1959 3584 
z
" transform="scale(0.015625)"/>
       <path id="DejaVuSans-57" d="M 1172 4494 
L 1172 3500 
L 2356 3500 
L 2356 3053 
L 1172 3053 
L 1172 1153 
Q 1172 725 1289 603 
Q 1406 481 1766 481 
L 2356 481 
L 2356 0 
L 1766 0 
Q 1100 0 847 248 
Q 594 497 594 1153 
L 594 3053 
L 172 3053 
L 172 3500 
L 594 3500 
L 594 4494 
L 1172 4494 
z
" transform="scale(0.015625)"/>
       <path id="DejaVuSans-4c" d="M 603 3500 
L 1178 3500 
L 1178 0 
L 603 0 
L 603 3500 
z
M 603 4863 
L 1178 4863 
L 1178 4134 
L 603 4134 
L 603 4863 
z
" transform="scale(0.015625)"/>
       <path id="DejaVuSans-51" d="M 3513 2113 
L 3513 0 
L 2938 0 
L 2938 2094 
Q 2938 2591 2744 2837 
Q 2550 3084 2163 3084 
Q 1697 3084 1428 2787 
Q 1159 2491 1159 1978 
L 1159 0 
L 581 0 
L 581 3500 
L 1159 3500 
L 1159 2956 
Q 1366 3272 1645 3428 
Q 1925 3584 2291 3584 
Q 2894 3584 3203 3211 
Q 3513 2838 3513 2113 
z
" transform="scale(0.015625)"/>
      </defs>
      <use xlink:href="#DejaVuSans-36"/>
      <use xlink:href="#DejaVuSans-44" transform="translate(63.484375 0)"/>
      <use xlink:href="#DejaVuSans-50" transform="translate(124.765625 0)"/>
      <use xlink:href="#DejaVuSans-53" transform="translate(222.171875 0)"/>
      <use xlink:href="#DejaVuSans-4f" transform="translate(285.65625 0)"/>
      <use xlink:href="#DejaVuSans-48" transform="translate(313.4375 0)"/>
      <use xlink:href="#DejaVuSans-3" transform="translate(374.96875 0)"/>
      <use xlink:href="#DejaVuSans-53" transform="translate(406.75 0)"/>
      <use xlink:href="#DejaVuSans-55" transform="translate(470.234375 0)"/>
      <use xlink:href="#DejaVuSans-52" transform="translate(509.140625 0)"/>
      <use xlink:href="#DejaVuSans-53" transform="translate(570.328125 0)"/>
      <use xlink:href="#DejaVuSans-52" transform="translate(633.8125 0)"/>
      <use xlink:href="#DejaVuSans-55" transform="translate(695 0)"/>
      <use xlink:href="#DejaVuSans-57" transform="translate(736.109375 0)"/>
      <use xlink:href="#DejaVuSans-4c" transform="translate(775.3125 0)"/>
      <use xlink:href="#DejaVuSans-52" transform="translate(803.09375 0)"/>
      <use xlink:href="#DejaVuSans-51" transform="translate(864.28125 0)"/>
     </g>
    </g>
   </g>
   <g id="matplotlib.axis_2">
    <g id="ytick_1">
     <g id="line2d_8">
      <defs>
       <path id="mb8d71f3750" d="M 0 0 
L -3.5 0 
" style="stroke: #000000; stroke-width: 0.8"/>
      </defs>
      <g>
       <use xlink:href="#mb8d71f3750" x="30.363521" y="325.998979" style="stroke: #000000; stroke-width: 0.8"/>
      </g>
     </g>
     <g id="text_9">
      <!-- 0 -->
      <g transform="translate(17.001021 329.797807) scale(0.1 -0.1)">
       <use xlink:href="#DejaVuSans-13"/>
      </g>
     </g>
    </g>
    <g id="ytick_2">
     <g id="line2d_9">
      <g>
       <use xlink:href="#mb8d71f3750" x="30.363521" y="284.842928" style="stroke: #000000; stroke-width: 0.8"/>
      </g>
     </g>
     <g id="text_10">
      <!-- 1 -->
      <g transform="translate(17.001021 288.641756) scale(0.1 -0.1)">
       <defs>
        <path id="DejaVuSans-14" d="M 794 531 
L 1825 531 
L 1825 4091 
L 703 3866 
L 703 4441 
L 1819 4666 
L 2450 4666 
L 2450 531 
L 3481 531 
L 3481 0 
L 794 0 
L 794 531 
z
" transform="scale(0.015625)"/>
       </defs>
       <use xlink:href="#DejaVuSans-14"/>
      </g>
     </g>
    </g>
    <g id="ytick_3">
     <g id="line2d_10">
      <g>
       <use xlink:href="#mb8d71f3750" x="30.363521" y="243.686878" style="stroke: #000000; stroke-width: 0.8"/>
      </g>
     </g>
     <g id="text_11">
      <!-- 2 -->
      <g transform="translate(17.001021 247.485706) scale(0.1 -0.1)">
       <use xlink:href="#DejaVuSans-15"/>
      </g>
     </g>
    </g>
    <g id="ytick_4">
     <g id="line2d_11">
      <g>
       <use xlink:href="#mb8d71f3750" x="30.363521" y="202.530827" style="stroke: #000000; stroke-width: 0.8"/>
      </g>
     </g>
     <g id="text_12">
      <!-- 3 -->
      <g transform="translate(17.001021 206.329656) scale(0.1 -0.1)">
       <use xlink:href="#DejaVuSans-16"/>
      </g>
     </g>
    </g>
    <g id="ytick_5">
     <g id="line2d_12">
      <g>
       <use xlink:href="#mb8d71f3750" x="30.363521" y="161.374777" style="stroke: #000000; stroke-width: 0.8"/>
      </g>
     </g>
     <g id="text_13">
      <!-- 4 -->
      <g transform="translate(17.001021 165.173605) scale(0.1 -0.1)">
       <use xlink:href="#DejaVuSans-17"/>
      </g>
     </g>
    </g>
    <g id="ytick_6">
     <g id="line2d_13">
      <g>
       <use xlink:href="#mb8d71f3750" x="30.363521" y="120.218727" style="stroke: #000000; stroke-width: 0.8"/>
      </g>
     </g>
     <g id="text_14">
      <!-- 5 -->
      <g transform="translate(17.001021 124.017555) scale(0.1 -0.1)">
       <use xlink:href="#DejaVuSans-18"/>
      </g>
     </g>
    </g>
    <g id="ytick_7">
     <g id="line2d_14">
      <g>
       <use xlink:href="#mb8d71f3750" x="30.363521" y="79.062676" style="stroke: #000000; stroke-width: 0.8"/>
      </g>
     </g>
     <g id="text_15">
      <!-- 6 -->
      <g transform="translate(17.001021 82.861504) scale(0.1 -0.1)">
       <use xlink:href="#DejaVuSans-19"/>
      </g>
     </g>
    </g>
    <g id="ytick_8">
     <g id="line2d_15">
      <g>
       <use xlink:href="#mb8d71f3750" x="30.363521" y="37.906626" style="stroke: #000000; stroke-width: 0.8"/>
      </g>
     </g>
     <g id="text_16">
      <!-- 7 -->
      <g transform="translate(17.001021 41.705454) scale(0.1 -0.1)">
       <use xlink:href="#DejaVuSans-1a"/>
      </g>
     </g>
    </g>
    <g id="text_17">
     <!-- Probability density -->
     <g transform="translate(10.598678 227.412506) rotate(-90) scale(0.1 -0.1)">
      <defs>
       <path id="DejaVuSans-33" d="M 1259 4147 
L 1259 2394 
L 2053 2394 
Q 2494 2394 2734 2622 
Q 2975 2850 2975 3272 
Q 2975 3691 2734 3919 
Q 2494 4147 2053 4147 
L 1259 4147 
z
M 628 4666 
L 2053 4666 
Q 2838 4666 3239 4311 
Q 3641 3956 3641 3272 
Q 3641 2581 3239 2228 
Q 2838 1875 2053 1875 
L 1259 1875 
L 1259 0 
L 628 0 
L 628 4666 
z
" transform="scale(0.015625)"/>
       <path id="DejaVuSans-45" d="M 3116 1747 
Q 3116 2381 2855 2742 
Q 2594 3103 2138 3103 
Q 1681 3103 1420 2742 
Q 1159 2381 1159 1747 
Q 1159 1113 1420 752 
Q 1681 391 2138 391 
Q 2594 391 2855 752 
Q 3116 1113 3116 1747 
z
M 1159 2969 
Q 1341 3281 1617 3432 
Q 1894 3584 2278 3584 
Q 2916 3584 3314 3078 
Q 3713 2572 3713 1747 
Q 3713 922 3314 415 
Q 2916 -91 2278 -91 
Q 1894 -91 1617 61 
Q 1341 213 1159 525 
L 1159 0 
L 581 0 
L 581 4863 
L 1159 4863 
L 1159 2969 
z
" transform="scale(0.015625)"/>
       <path id="DejaVuSans-5c" d="M 2059 -325 
Q 1816 -950 1584 -1140 
Q 1353 -1331 966 -1331 
L 506 -1331 
L 506 -850 
L 844 -850 
Q 1081 -850 1212 -737 
Q 1344 -625 1503 -206 
L 1606 56 
L 191 3500 
L 800 3500 
L 1894 763 
L 2988 3500 
L 3597 3500 
L 2059 -325 
z
" transform="scale(0.015625)"/>
       <path id="DejaVuSans-47" d="M 2906 2969 
L 2906 4863 
L 3481 4863 
L 3481 0 
L 2906 0 
L 2906 525 
Q 2725 213 2448 61 
Q 2172 -91 1784 -91 
Q 1150 -91 751 415 
Q 353 922 353 1747 
Q 353 2572 751 3078 
Q 1150 3584 1784 3584 
Q 2172 3584 2448 3432 
Q 2725 3281 2906 2969 
z
M 947 1747 
Q 947 1113 1208 752 
Q 1469 391 1925 391 
Q 2381 391 2643 752 
Q 2906 1113 2906 1747 
Q 2906 2381 2643 2742 
Q 2381 3103 1925 3103 
Q 1469 3103 1208 2742 
Q 947 2381 947 1747 
z
" transform="scale(0.015625)"/>
       <path id="DejaVuSans-56" d="M 2834 3397 
L 2834 2853 
Q 2591 2978 2328 3040 
Q 2066 3103 1784 3103 
Q 1356 3103 1142 2972 
Q 928 2841 928 2578 
Q 928 2378 1081 2264 
Q 1234 2150 1697 2047 
L 1894 2003 
Q 2506 1872 2764 1633 
Q 3022 1394 3022 966 
Q 3022 478 2636 193 
Q 2250 -91 1575 -91 
Q 1294 -91 989 -36 
Q 684 19 347 128 
L 347 722 
Q 666 556 975 473 
Q 1284 391 1588 391 
Q 1994 391 2212 530 
Q 2431 669 2431 922 
Q 2431 1156 2273 1281 
Q 2116 1406 1581 1522 
L 1381 1569 
Q 847 1681 609 1914 
Q 372 2147 372 2553 
Q 372 3047 722 3315 
Q 1072 3584 1716 3584 
Q 2034 3584 2315 3537 
Q 2597 3491 2834 3397 
z
" transform="scale(0.015625)"/>
      </defs>
      <use xlink:href="#DejaVuSans-33"/>
      <use xlink:href="#DejaVuSans-55" transform="translate(58.546875 0)"/>
      <use xlink:href="#DejaVuSans-52" transform="translate(97.453125 0)"/>
      <use xlink:href="#DejaVuSans-45" transform="translate(158.640625 0)"/>
      <use xlink:href="#DejaVuSans-44" transform="translate(222.125 0)"/>
      <use xlink:href="#DejaVuSans-45" transform="translate(283.40625 0)"/>
      <use xlink:href="#DejaVuSans-4c" transform="translate(346.890625 0)"/>
      <use xlink:href="#DejaVuSans-4f" transform="translate(374.671875 0)"/>
      <use xlink:href="#DejaVuSans-4c" transform="translate(402.453125 0)"/>
      <use xlink:href="#DejaVuSans-57" transform="translate(430.234375 0)"/>
      <use xlink:href="#DejaVuSans-5c" transform="translate(469.4375 0)"/>
      <use xlink:href="#DejaVuSans-3" transform="translate(528.625 0)"/>
      <use xlink:href="#DejaVuSans-47" transform="translate(560.40625 0)"/>
      <use xlink:href="#DejaVuSans-48" transform="translate(623.890625 0)"/>
      <use xlink:href="#DejaVuSans-51" transform="translate(685.421875 0)"/>
      <use xlink:href="#DejaVuSans-56" transform="translate(748.796875 0)"/>
      <use xlink:href="#DejaVuSans-4c" transform="translate(800.890625 0)"/>
      <use xlink:href="#DejaVuSans-57" transform="translate(828.671875 0)"/>
      <use xlink:href="#DejaVuSans-5c" transform="translate(867.875 0)"/>
     </g>
    </g>
   </g>
   <g id="line2d_16">
    <path d="M 64.846987 325.955875 
L 99.399557 325.778187 
L 120.1311 325.457303 
L 135.334231 324.993349 
L 146.391053 324.454595 
L 156.065773 323.783354 
L 164.35839 323.012388 
L 172.651007 322.012911 
L 179.561521 320.96715 
L 186.472035 319.690661 
L 192.000446 318.477411 
L 197.528858 317.070298 
L 203.057269 315.4466 
L 208.58568 313.582524 
L 214.114091 311.453467 
L 219.642503 309.034344 
L 225.170914 306.299979 
L 229.317222 304.027381 
L 233.463531 301.553338 
L 237.609839 298.86812 
L 241.756148 295.96257 
L 245.902456 292.828267 
L 250.048765 289.457687 
L 254.195073 285.844375 
L 258.341382 281.983126 
L 262.48769 277.870157 
L 266.633999 273.503287 
L 270.780307 268.882105 
L 276.308718 262.32787 
L 281.83713 255.333951 
L 287.365541 247.917001 
L 292.893952 240.101343 
L 298.422363 231.919313 
L 305.332878 221.23915 
L 312.243392 210.14785 
L 321.918111 194.155446 
L 341.267551 162.025347 
L 348.178065 151.049293 
L 353.706476 142.653946 
L 359.234888 134.701488 
L 363.381196 129.082489 
L 367.527505 123.800805 
L 371.673813 118.892015 
L 375.820121 114.389799 
L 379.96643 110.325552 
L 382.730636 107.873689 
L 385.494841 105.637113 
L 388.259047 103.622988 
L 391.023253 101.837807 
L 393.787458 100.287361 
L 396.551664 98.976701 
L 399.315869 97.910119 
L 402.080075 97.091117 
L 404.844281 96.522394 
L 407.608486 96.205826 
L 410.372692 96.14246 
L 413.136898 96.332505 
L 415.901103 96.775334 
L 418.665309 97.469483 
L 421.429515 98.412663 
L 424.19372 99.601771 
L 426.957926 101.032909 
L 429.722132 102.701401 
L 432.486337 104.601822 
L 435.250543 106.728027 
L 438.014748 109.073182 
L 440.778954 111.629805 
L 444.925263 115.843374 
L 449.071571 120.484724 
L 453.21788 125.521656 
L 457.364188 130.919813 
L 461.510496 136.643073 
L 467.038908 144.714858 
L 472.567319 153.206506 
L 479.477833 164.270328 
L 489.152553 180.277074 
L 507.11989 210.14785 
L 515.412506 223.411476 
L 522.323021 233.997091 
L 527.851432 242.091007 
L 533.379843 249.809703 
L 538.908254 257.122868 
L 544.436666 264.008138 
L 549.965077 270.450703 
L 554.111385 274.987185 
L 558.257694 279.269285 
L 562.404002 283.298022 
L 566.550311 287.076131 
L 570.696619 290.607889 
L 574.842928 293.898937 
L 578.989236 296.956105 
L 583.135545 299.787235 
L 587.281853 302.401013 
L 591.428162 304.806803 
L 595.57447 307.014492 
L 601.102881 309.667698 
L 606.631293 312.011941 
L 612.159704 314.072413 
L 617.688115 315.874114 
L 623.216527 317.441473 
L 628.744938 318.798037 
L 635.655452 320.231345 
L 642.565966 321.411093 
L 649.47648 322.374596 
L 657.769097 323.292353 
L 666.061714 323.997681 
L 675.736434 324.609364 
L 688.175359 325.146677 
L 703.37849 325.54405 
L 722.72793 325.804004 
L 751.752089 325.949545 
L 754.516295 325.955875 
L 754.516295 325.955875 
" clip-path="url(#p5dd81313cd)" style="fill: none; stroke: #ff7f0e; stroke-width: 1.5; stroke-linecap: square"/>
   </g>
   <g id="line2d_17">
    <path d="M 516.699292 325.998979 
L 516.699292 36.119783 
" clip-path="url(#p5dd81313cd)" style="fill: none; stroke: #dc143c; stroke-width: 1.5; stroke-linecap: square"/>
   </g>
   <g id="patch_38">
    <path d="M 30.363521 325.998979 
L 30.363521 36.119783 
" style="fill: none; stroke: #000000; stroke-width: 0.8; stroke-linejoin: miter; stroke-linecap: square"/>
   </g>
   <g id="patch_39">
    <path d="M 788.99976 325.998979 
L 788.99976 36.119783 
" style="fill: none; stroke: #000000; stroke-width: 0.8; stroke-linejoin: miter; stroke-linecap: square"/>
   </g>
   <g id="patch_40">
    <path d="M 30.363521 325.998979 
L 788.99976 325.998979 
" style="fill: none; stroke: #000000; stroke-width: 0.8; stroke-linejoin: miter; stroke-linecap: square"/>
   </g>
   <g id="patch_41">
    <path d="M 30.363521 36.119783 
L 788.99976 36.119783 
" style="fill: none; stroke: #000000; stroke-width: 0.8; stroke-linejoin: miter; stroke-linecap: square"/>
   </g>
   <g id="text_18">
    <!-- Sample proportions: n=49, population p=0.5 -->
    <g transform="translate(274.475391 30.119783) scale(0.12 -0.12)">
     <defs>
      <path id="DejaVuSans-1d" d="M 750 794 
L 1409 794 
L 1409 0 
L 750 0 
L 750 794 
z
M 750 3309 
L 1409 3309 
L 1409 2516 
L 750 2516 
L 750 3309 
z
" transform="scale(0.015625)"/>
      <path id="DejaVuSans-20" d="M 678 2906 
L 4684 2906 
L 4684 2381 
L 678 2381 
L 678 2906 
z
M 678 1631 
L 4684 1631 
L 4684 1100 
L 678 1100 
L 678 1631 
z
" transform="scale(0.015625)"/>
      <path id="DejaVuSans-1c" d="M 703 97 
L 703 672 
Q 941 559 1184 500 
Q 1428 441 1663 441 
Q 2288 441 2617 861 
Q 2947 1281 2994 2138 
Q 2813 1869 2534 1725 
Q 2256 1581 1919 1581 
Q 1219 1581 811 2004 
Q 403 2428 403 3163 
Q 403 3881 828 4315 
Q 1253 4750 1959 4750 
Q 2769 4750 3195 4129 
Q 3622 3509 3622 2328 
Q 3622 1225 3098 567 
Q 2575 -91 1691 -91 
Q 1453 -91 1209 -44 
Q 966 3 703 97 
z
M 1959 2075 
Q 2384 2075 2632 2365 
Q 2881 2656 2881 3163 
Q 2881 3666 2632 3958 
Q 2384 4250 1959 4250 
Q 1534 4250 1286 3958 
Q 1038 3666 1038 3163 
Q 1038 2656 1286 2365 
Q 1534 2075 1959 2075 
z
" transform="scale(0.015625)"/>
      <path id="DejaVuSans-f" d="M 750 794 
L 1409 794 
L 1409 256 
L 897 -744 
L 494 -744 
L 750 256 
L 750 794 
z
" transform="scale(0.015625)"/>
      <path id="DejaVuSans-58" d="M 544 1381 
L 544 3500 
L 1119 3500 
L 1119 1403 
Q 1119 906 1312 657 
Q 1506 409 1894 409 
Q 2359 409 2629 706 
Q 2900 1003 2900 1516 
L 2900 3500 
L 3475 3500 
L 3475 0 
L 2900 0 
L 2900 538 
Q 2691 219 2414 64 
Q 2138 -91 1772 -91 
Q 1169 -91 856 284 
Q 544 659 544 1381 
z
M 1991 3584 
L 1991 3584 
z
" transform="scale(0.015625)"/>
     </defs>
     <use xlink:href="#DejaVuSans-36"/>
     <use xlink:href="#DejaVuSans-44" transform="translate(63.484375 0)"/>
     <use xlink:href="#DejaVuSans-50" transform="translate(124.765625 0)"/>
     <use xlink:href="#DejaVuSans-53" transform="translate(222.171875 0)"/>
     <use xlink:href="#DejaVuSans-4f" transform="translate(285.65625 0)"/>
     <use xlink:href="#DejaVuSans-48" transform="translate(313.4375 0)"/>
     <use xlink:href="#DejaVuSans-3" transform="translate(374.96875 0)"/>
     <use xlink:href="#DejaVuSans-53" transform="translate(406.75 0)"/>
     <use xlink:href="#DejaVuSans-55" transform="translate(470.234375 0)"/>
     <use xlink:href="#DejaVuSans-52" transform="translate(509.140625 0)"/>
     <use xlink:href="#DejaVuSans-53" transform="translate(570.328125 0)"/>
     <use xlink:href="#DejaVuSans-52" transform="translate(633.8125 0)"/>
     <use xlink:href="#DejaVuSans-55" transform="translate(695 0)"/>
     <use xlink:href="#DejaVuSans-57" transform="translate(736.109375 0)"/>
     <use xlink:href="#DejaVuSans-4c" transform="translate(775.3125 0)"/>
     <use xlink:href="#DejaVuSans-52" transform="translate(803.09375 0)"/>
     <use xlink:href="#DejaVuSans-51" transform="translate(864.28125 0)"/>
     <use xlink:href="#DejaVuSans-56" transform="translate(927.65625 0)"/>
     <use xlink:href="#DejaVuSans-1d" transform="translate(979.75 0)"/>
     <use xlink:href="#DejaVuSans-3" transform="translate(1013.4375 0)"/>
     <use xlink:href="#DejaVuSans-51" transform="translate(1045.21875 0)"/>
     <use xlink:href="#DejaVuSans-20" transform="translate(1108.59375 0)"/>
     <use xlink:href="#DejaVuSans-17" transform="translate(1192.390625 0)"/>
     <use xlink:href="#DejaVuSans-1c" transform="translate(1256.015625 0)"/>
     <use xlink:href="#DejaVuSans-f" transform="translate(1319.640625 0)"/>
     <use xlink:href="#DejaVuSans-3" transform="translate(1351.421875 0)"/>
     <use xlink:href="#DejaVuSans-53" transform="translate(1383.203125 0)"/>
     <use xlink:href="#DejaVuSans-52" transform="translate(1446.6875 0)"/>
     <use xlink:href="#DejaVuSans-53" transform="translate(1507.875 0)"/>
     <use xlink:href="#DejaVuSans-58" transform="translate(1571.359375 0)"/>
     <use xlink:href="#DejaVuSans-4f" transform="translate(1634.734375 0)"/>
     <use xlink:href="#DejaVuSans-44" transform="translate(1662.515625 0)"/>
     <use xlink:href="#DejaVuSans-57" transform="translate(1723.796875 0)"/>
     <use xlink:href="#DejaVuSans-4c" transform="translate(1763 0)"/>
     <use xlink:href="#DejaVuSans-52" transform="translate(1790.78125 0)"/>
     <use xlink:href="#DejaVuSans-51" transform="translate(1851.96875 0)"/>
     <use xlink:href="#DejaVuSans-3" transform="translate(1915.34375 0)"/>
     <use xlink:href="#DejaVuSans-53" transform="translate(1947.125 0)"/>
     <use xlink:href="#DejaVuSans-20" transform="translate(2010.609375 0)"/>
     <use xlink:href="#DejaVuSans-13" transform="translate(2094.40625 0)"/>
     <use xlink:href="#DejaVuSans-11" transform="translate(2158.03125 0)"/>
     <use xlink:href="#DejaVuSans-18" transform="translate(2189.8125 0)"/>
    </g>
   </g>
   <g id="legend_1">
    <g id="patch_42">
     <path d="M 592.354447 89.122126 
L 781.99976 89.122126 
Q 783.99976 89.122126 783.99976 87.122126 
L 783.99976 43.119783 
Q 783.99976 41.119783 781.99976 41.119783 
L 592.354447 41.119783 
Q 590.354447 41.119783 590.354447 43.119783 
L 590.354447 87.122126 
Q 590.354447 89.122126 592.354447 89.122126 
z
" style="fill: #ffffff; opacity: 0.8; stroke: #cccccc; stroke-linejoin: miter"/>
    </g>
    <g id="patch_43">
     <path d="M 594.354447 52.71822 
L 614.354447 52.71822 
L 614.354447 45.71822 
L 594.354447 45.71822 
z
" style="fill: #1f77b4; opacity: 0.65"/>
    </g>
    <g id="text_19">
     <!-- Simulated sample proportions -->
     <g transform="translate(622.354447 52.71822) scale(0.1 -0.1)">
      <use xlink:href="#DejaVuSans-36"/>
      <use xlink:href="#DejaVuSans-4c" transform="translate(63.484375 0)"/>
      <use xlink:href="#DejaVuSans-50" transform="translate(91.265625 0)"/>
      <use xlink:href="#DejaVuSans-58" transform="translate(188.671875 0)"/>
      <use xlink:href="#DejaVuSans-4f" transform="translate(252.046875 0)"/>
      <use xlink:href="#DejaVuSans-44" transform="translate(279.828125 0)"/>
      <use xlink:href="#DejaVuSans-57" transform="translate(341.109375 0)"/>
      <use xlink:href="#DejaVuSans-48" transform="translate(380.3125 0)"/>
      <use xlink:href="#DejaVuSans-47" transform="translate(441.84375 0)"/>
      <use xlink:href="#DejaVuSans-3" transform="translate(505.328125 0)"/>
      <use xlink:href="#DejaVuSans-56" transform="translate(537.109375 0)"/>
      <use xlink:href="#DejaVuSans-44" transform="translate(589.203125 0)"/>
      <use xlink:href="#DejaVuSans-50" transform="translate(650.484375 0)"/>
      <use xlink:href="#DejaVuSans-53" transform="translate(747.890625 0)"/>
      <use xlink:href="#DejaVuSans-4f" transform="translate(811.375 0)"/>
      <use xlink:href="#DejaVuSans-48" transform="translate(839.15625 0)"/>
      <use xlink:href="#DejaVuSans-3" transform="translate(900.6875 0)"/>
      <use xlink:href="#DejaVuSans-53" transform="translate(932.46875 0)"/>
      <use xlink:href="#DejaVuSans-55" transform="translate(995.953125 0)"/>
      <use xlink:href="#DejaVuSans-52" transform="translate(1034.859375 0)"/>
      <use xlink:href="#DejaVuSans-53" transform="translate(1096.046875 0)"/>
      <use xlink:href="#DejaVuSans-52" transform="translate(1159.53125 0)"/>
      <use xlink:href="#DejaVuSans-55" transform="translate(1220.71875 0)"/>
      <use xlink:href="#DejaVuSans-57" transform="translate(1261.828125 0)"/>
      <use xlink:href="#DejaVuSans-4c" transform="translate(1301.03125 0)"/>
      <use xlink:href="#DejaVuSans-52" transform="translate(1328.8125 0)"/>
      <use xlink:href="#DejaVuSans-51" transform="translate(1390 0)"/>
      <use xlink:href="#DejaVuSans-56" transform="translate(1453.375 0)"/>
     </g>
    </g>
    <g id="line2d_18">
     <path d="M 594.354447 64.219001 
L 604.354447 64.219001 
L 614.354447 64.219001 
" style="fill: none; stroke: #ff7f0e; stroke-width: 1.5; stroke-linecap: square"/>
    </g>
    <g id="text_20">
     <!-- Normal reference -->
     <g transform="translate(622.354447 67.719001) scale(0.1 -0.1)">
      <defs>
       <path id="DejaVuSans-31" d="M 628 4666 
L 1478 4666 
L 3547 763 
L 3547 4666 
L 4159 4666 
L 4159 0 
L 3309 0 
L 1241 3903 
L 1241 0 
L 628 0 
L 628 4666 
z
" transform="scale(0.015625)"/>
       <path id="DejaVuSans-49" d="M 2375 4863 
L 2375 4384 
L 1825 4384 
Q 1516 4384 1395 4259 
Q 1275 4134 1275 3809 
L 1275 3500 
L 2222 3500 
L 2222 3053 
L 1275 3053 
L 1275 0 
L 697 0 
L 697 3053 
L 147 3053 
L 147 3500 
L 697 3500 
L 697 3744 
Q 697 4328 969 4595 
Q 1241 4863 1831 4863 
L 2375 4863 
z
" transform="scale(0.015625)"/>
       <path id="DejaVuSans-46" d="M 3122 3366 
L 3122 2828 
Q 2878 2963 2633 3030 
Q 2388 3097 2138 3097 
Q 1578 3097 1268 2742 
Q 959 2388 959 1747 
Q 959 1106 1268 751 
Q 1578 397 2138 397 
Q 2388 397 2633 464 
Q 2878 531 3122 666 
L 3122 134 
Q 2881 22 2623 -34 
Q 2366 -91 2075 -91 
Q 1284 -91 818 406 
Q 353 903 353 1747 
Q 353 2603 823 3093 
Q 1294 3584 2113 3584 
Q 2378 3584 2631 3529 
Q 2884 3475 3122 3366 
z
" transform="scale(0.015625)"/>
      </defs>
      <use xlink:href="#DejaVuSans-31"/>
      <use xlink:href="#DejaVuSans-52" transform="translate(74.8125 0)"/>
      <use xlink:href="#DejaVuSans-55" transform="translate(136 0)"/>
      <use xlink:href="#DejaVuSans-50" transform="translate(175.359375 0)"/>
      <use xlink:href="#DejaVuSans-44" transform="translate(272.765625 0)"/>
      <use xlink:href="#DejaVuSans-4f" transform="translate(334.046875 0)"/>
      <use xlink:href="#DejaVuSans-3" transform="translate(361.828125 0)"/>
      <use xlink:href="#DejaVuSans-55" transform="translate(393.609375 0)"/>
      <use xlink:href="#DejaVuSans-48" transform="translate(432.515625 0)"/>
      <use xlink:href="#DejaVuSans-49" transform="translate(494.046875 0)"/>
      <use xlink:href="#DejaVuSans-48" transform="translate(529.25 0)"/>
      <use xlink:href="#DejaVuSans-55" transform="translate(590.78125 0)"/>
      <use xlink:href="#DejaVuSans-48" transform="translate(629.6875 0)"/>
      <use xlink:href="#DejaVuSans-51" transform="translate(691.21875 0)"/>
      <use xlink:href="#DejaVuSans-46" transform="translate(754.59375 0)"/>
      <use xlink:href="#DejaVuSans-48" transform="translate(809.578125 0)"/>
     </g>
    </g>
    <g id="line2d_19">
     <path d="M 594.354447 79.219783 
L 604.354447 79.219783 
L 614.354447 79.219783 
" style="fill: none; stroke: #dc143c; stroke-width: 1.5; stroke-linecap: square"/>
    </g>
    <g id="text_21">
     <!-- Observed proportion: 0.591837 -->
     <g transform="translate(622.354447 82.719783) scale(0.1 -0.1)">
      <defs>
       <path id="DejaVuSans-32" d="M 2522 4238 
Q 1834 4238 1429 3725 
Q 1025 3213 1025 2328 
Q 1025 1447 1429 934 
Q 1834 422 2522 422 
Q 3209 422 3611 934 
Q 4013 1447 4013 2328 
Q 4013 3213 3611 3725 
Q 3209 4238 2522 4238 
z
M 2522 4750 
Q 3503 4750 4090 4092 
Q 4678 3434 4678 2328 
Q 4678 1225 4090 567 
Q 3503 -91 2522 -91 
Q 1538 -91 948 565 
Q 359 1222 359 2328 
Q 359 3434 948 4092 
Q 1538 4750 2522 4750 
z
" transform="scale(0.015625)"/>
       <path id="DejaVuSans-59" d="M 191 3500 
L 800 3500 
L 1894 563 
L 2988 3500 
L 3597 3500 
L 2284 0 
L 1503 0 
L 191 3500 
z
" transform="scale(0.015625)"/>
      </defs>
      <use xlink:href="#DejaVuSans-32"/>
      <use xlink:href="#DejaVuSans-45" transform="translate(78.71875 0)"/>
      <use xlink:href="#DejaVuSans-56" transform="translate(142.203125 0)"/>
      <use xlink:href="#DejaVuSans-48" transform="translate(194.296875 0)"/>
      <use xlink:href="#DejaVuSans-55" transform="translate(255.828125 0)"/>
      <use xlink:href="#DejaVuSans-59" transform="translate(296.9375 0)"/>
      <use xlink:href="#DejaVuSans-48" transform="translate(356.125 0)"/>
      <use xlink:href="#DejaVuSans-47" transform="translate(417.65625 0)"/>
      <use xlink:href="#DejaVuSans-3" transform="translate(481.140625 0)"/>
      <use xlink:href="#DejaVuSans-53" transform="translate(512.921875 0)"/>
      <use xlink:href="#DejaVuSans-55" transform="translate(576.40625 0)"/>
      <use xlink:href="#DejaVuSans-52" transform="translate(615.3125 0)"/>
      <use xlink:href="#DejaVuSans-53" transform="translate(676.5 0)"/>
      <use xlink:href="#DejaVuSans-52" transform="translate(739.984375 0)"/>
      <use xlink:href="#DejaVuSans-55" transform="translate(801.171875 0)"/>
      <use xlink:href="#DejaVuSans-57" transform="translate(842.28125 0)"/>
      <use xlink:href="#DejaVuSans-4c" transform="translate(881.484375 0)"/>
      <use xlink:href="#DejaVuSans-52" transform="translate(909.265625 0)"/>
      <use xlink:href="#DejaVuSans-51" transform="translate(970.453125 0)"/>
      <use xlink:href="#DejaVuSans-1d" transform="translate(1033.828125 0)"/>
      <use xlink:href="#DejaVuSans-3" transform="translate(1067.515625 0)"/>
      <use xlink:href="#DejaVuSans-13" transform="translate(1099.296875 0)"/>
      <use xlink:href="#DejaVuSans-11" transform="translate(1162.921875 0)"/>
      <use xlink:href="#DejaVuSans-18" transform="translate(1194.703125 0)"/>
      <use xlink:href="#DejaVuSans-1c" transform="translate(1258.328125 0)"/>
      <use xlink:href="#DejaVuSans-14" transform="translate(1321.953125 0)"/>
      <use xlink:href="#DejaVuSans-1b" transform="translate(1385.578125 0)"/>
      <use xlink:href="#DejaVuSans-16" transform="translate(1449.203125 0)"/>
      <use xlink:href="#DejaVuSans-1a" transform="translate(1512.828125 0)"/>
     </g>
    </g>
   </g>
  </g>
  <g id="text_22">
   <!-- Problem 3.3 -->
   <g transform="translate(360.020625 12.118365) scale(0.12 -0.12)">
    <use xlink:href="#DejaVuSans-33"/>
    <use xlink:href="#DejaVuSans-55" transform="translate(58.546875 0)"/>
    <use xlink:href="#DejaVuSans-52" transform="translate(97.453125 0)"/>
    <use xlink:href="#DejaVuSans-45" transform="translate(158.640625 0)"/>
    <use xlink:href="#DejaVuSans-4f" transform="translate(222.125 0)"/>
    <use xlink:href="#DejaVuSans-48" transform="translate(249.90625 0)"/>
    <use xlink:href="#DejaVuSans-50" transform="translate(311.4375 0)"/>
    <use xlink:href="#DejaVuSans-3" transform="translate(408.84375 0)"/>
    <use xlink:href="#DejaVuSans-16" transform="translate(440.625 0)"/>
    <use xlink:href="#DejaVuSans-11" transform="translate(504.25 0)"/>
    <use xlink:href="#DejaVuSans-16" transform="translate(536.03125 0)"/>
   </g>
  </g>
 </g>
 <defs>
  <clipPath id="p5dd81313cd">
   <rect x="30.363521" y="36.119783" width="758.636239" height="289.879196"/>
  </clipPath>
 </defs>
</svg>
